<?xml version="1.0" standalone="no"?>
<!DOCTYPE svg PUBLIC "-//W3C//DTD SVG 20010904//EN"
 "http://www.w3.org/TR/2001/REC-SVG-20010904/DTD/svg10.dtd">
<svg version="1.0" xmlns="http://www.w3.org/2000/svg"
 width="260.000000pt" height="260.000000pt" viewBox="0 0 260.000000 260.000000"
 preserveAspectRatio="xMidYMid meet">
<metadata>
Created by potrace 1.11, written by Peter Selinger 2001-2013
</metadata>
<g transform="translate(0.000000,260.000000) scale(0.100000,-0.100000)"
fill="#000000" stroke="none">
<path d="M1155 2472 c-98 -14 -242 -50 -250 -62 -3 -4 26 -26 63 -48 113 -67
249 -179 382 -312 309 -309 577 -715 792 -1200 18 -40 77 -222 81 -250 6 -36
13 -30 64 48 74 113 138 260 168 387 77 327 -2 703 -206 975 -125 166 -258
274 -452 365 -203 95 -422 128 -642 97z"/>
<path d="M467 2133 c-80 -83 -93 -99 -152 -188 -108 -165 -146 -263 -180 -460
-16 -100 -13 -304 8 -405 45 -221 149 -438 256 -534 20 -18 21 -18 27 0 116
370 397 853 658 1132 23 24 41 48 41 53 0 19 -214 223 -290 277 -103 72 -288
182 -309 182 -2 0 -28 -26 -59 -57z"/>
<path d="M1291 1388 c-29 -35 -59 -72 -68 -82 -79 -97 -292 -486 -362 -664
-41 -101 -100 -299 -108 -357 -4 -33 -4 -33 118 -85 63 -26 165 -56 239 -69
50 -8 314 -7 385 2 89 11 200 44 297 89 l86 40 -24 91 c-85 320 -197 607 -322
827 -63 109 -171 270 -182 270 -4 0 -30 -28 -59 -62z"/>
</g>
</svg>
